<svg width="20" height="20" viewBox="0 0 20 20" fill="none" xmlns="http://www.w3.org/2000/svg">
<path d="M9.52797 1.94406H2.8951C2.39249 1.94406 1.91046 2.14372 1.55506 2.49912C1.19966 2.85453 1 3.33655 1 3.83917V17.1049C1 17.6075 1.19966 18.0895 1.55506 18.4449C1.91046 18.8003 2.39249 19 2.8951 19H16.1608C16.6634 19 17.1455 18.8003 17.5009 18.4449C17.8563 18.0895 18.0559 17.6075 18.0559 17.1049V10.472" stroke="#E4E4E7" stroke-linecap="round" stroke-linejoin="round"/>
<path d="M15.5685 1.58873C15.9455 1.21177 16.4568 1 16.9899 1C17.523 1 18.0342 1.21177 18.4112 1.58873C18.7881 1.96569 18.9999 2.47696 18.9999 3.01006C18.9999 3.54316 18.7881 4.05443 18.4112 4.43139L9.8709 12.9726C9.6459 13.1974 9.36794 13.362 9.06264 13.4511L6.34032 14.2471C6.25878 14.2709 6.17236 14.2723 6.09008 14.2512C6.0078 14.2301 5.93271 14.1873 5.87265 14.1273C5.8126 14.0672 5.76979 13.9921 5.74871 13.9098C5.72763 13.8276 5.72906 13.7411 5.75284 13.6596L6.54878 10.9373C6.63835 10.6322 6.80323 10.3546 7.02824 10.13L15.5685 1.58873Z" stroke="#E4E4E7" stroke-linecap="round" stroke-linejoin="round"/>
</svg>
