<svg width="20" height="20" viewBox="0 0 20 20" fill="none" xmlns="http://www.w3.org/2000/svg">
<path d="M16.6666 16.6666L13.2916 13.2916M13.2916 13.2916C13.8333 12.7499 14.263 12.1068 14.5562 11.3991C14.8494 10.6913 15.0003 9.93272 15.0003 9.16664C15.0003 8.40056 14.8494 7.64197 14.5562 6.93421C14.263 6.22644 13.8333 5.58334 13.2916 5.04164C12.7499 4.49994 12.1068 4.07023 11.3991 3.77707C10.6913 3.4839 9.93272 3.33301 9.16664 3.33301C8.40056 3.33301 7.64197 3.4839 6.93421 3.77707C6.22644 4.07023 5.58334 4.49994 5.04164 5.04164C3.94762 6.13566 3.33301 7.61946 3.33301 9.16664C3.33301 10.7138 3.94762 12.1976 5.04164 13.2916C6.13566 14.3857 7.61946 15.0003 9.16664 15.0003C10.7138 15.0003 12.1976 14.3857 13.2916 13.2916Z" stroke="#62626A" stroke-width="2.91667" stroke-linecap="round" stroke-linejoin="round"/>
</svg>
